M48
;DRILL file {KiCad 4.0.6} date Monday, September 17, 2018 'PMt' 12:22:00 PM
;FORMAT={-:-/ absolute / inch / decimal}
FMAT,2
INCH,TZ
T1C0.015
T2C0.016
T3C0.031
T4C0.035
T5C0.039
T6C0.098
%
G90
G05
M72
T1
X5.0265Y-3.7115
X5.0865Y-4.369
X5.109Y-4.1165
X5.109Y-4.174
X5.1315Y-4.2465
X5.1765Y-3.9865
X5.1965Y-3.729
X5.229Y-4.284
X5.234Y-4.1015
X5.254Y-4.3665
X5.339Y-3.8315
X5.344Y-3.7265
X5.3915Y-4.254
X5.4065Y-3.9415
X5.429Y-4.099
X5.464Y-4.3215
X5.5015Y-4.234
X5.5065Y-3.9915
X5.5265Y-4.324
X5.5465Y-3.764
X5.5465Y-3.989
X5.5515Y-4.2315
X5.6415Y-3.9265
X5.6415Y-4.019
X5.6515Y-4.214
X5.7565Y-4.2215
X5.764Y-4.0615
X5.769Y-3.809
X5.779Y-4.269
X5.8015Y-3.9915
X5.8165Y-4.234
X5.869Y-4.4065
T2
X5.649Y-4.119
X5.7465Y-4.1215
X5.8165Y-4.2961
X5.8197Y-4.0319
X5.8415Y-3.9725
X5.8715Y-3.9365
X5.874Y-3.894
X5.904Y-4.2765
X5.909Y-3.834
X5.9136Y-3.8769
X5.9451Y-4.4906
X5.964Y-4.079
X5.9665Y-4.1515
X5.9665Y-4.2215
X6.034Y-4.2215
X6.039Y-4.0115
X6.0415Y-4.164
X6.0565Y-3.8415
X6.0834Y-3.8121
X6.104Y-4.079
X6.1318Y-3.909
X6.1715Y-4.0915
X6.1894Y-4.4431
X6.229Y-4.459
X6.2515Y-3.9765
X6.2715Y-4.149
X6.2769Y-4.354
X6.2815Y-3.9065
X6.2815Y-4.009
X6.2915Y-3.9487
X6.309Y-4.244
X6.314Y-4.1665
X6.3165Y-3.8265
X6.3165Y-4.3415
X6.5433Y-3.8504
T3
X5.0569Y-4.0041
X5.0569Y-4.2639
X6.4567Y-4.0157
X6.4567Y-4.0945
X6.4567Y-4.1732
X6.4567Y-4.252
X6.6929Y-4.0157
X6.6929Y-4.0945
X6.6929Y-4.1732
X6.6929Y-4.252
T4
X4.9467Y-3.9923
X4.9467Y-4.2757
T5
X5.0965Y-4.534
X5.1965Y-4.534
X5.2965Y-4.534
X5.3965Y-4.534
X5.4965Y-3.734
X5.4965Y-4.534
X5.5965Y-3.734
X5.5965Y-4.534
X5.6965Y-3.734
X5.6965Y-4.534
X5.7965Y-3.734
X5.7965Y-4.534
X5.8965Y-3.734
X5.8965Y-4.534
X5.9965Y-3.734
X5.9965Y-4.534
X6.0965Y-3.734
X6.0965Y-4.534
X6.1965Y-3.734
X6.1965Y-4.534
X6.2965Y-3.734
X6.2965Y-4.534
X6.3965Y-3.734
X6.3965Y-4.534
X6.4965Y-3.734
X6.4965Y-4.534
X6.5965Y-3.734
X6.5965Y-4.534
T6
X4.9465Y-3.784
X4.9465Y-4.484
T0
M30
