G04 #@! TF.FileFunction,Paste,Top*
%FSLAX46Y46*%
G04 Gerber Fmt 4.6, Leading zero omitted, Abs format (unit mm)*
G04 Created by KiCad (PCBNEW 4.0.6) date Monday, September 17, 2018 'PMt' 12:21:56 PM*
%MOMM*%
%LPD*%
G01*
G04 APERTURE LIST*
%ADD10C,0.100000*%
%ADD11R,1.500000X1.240000*%
%ADD12R,1.000000X1.075000*%
%ADD13R,1.240000X1.500000*%
%ADD14R,1.200000X1.200000*%
%ADD15R,1.075000X1.000000*%
%ADD16R,0.900000X0.900000*%
%ADD17R,1.350000X0.400000*%
%ADD18R,2.000000X1.000000*%
%ADD19R,0.550000X1.200000*%
%ADD20R,1.000000X4.600000*%
%ADD21R,1.600000X3.400000*%
%ADD22R,1.100000X1.900000*%
%ADD23R,0.850000X1.000000*%
%ADD24R,0.275000X0.500000*%
%ADD25R,1.400000X1.400000*%
%ADD26R,0.635000X1.016000*%
%ADD27R,0.900000X0.450000*%
%ADD28R,0.220000X0.700000*%
%ADD29R,0.700000X0.220000*%
%ADD30R,4.700000X4.700000*%
%ADD31R,2.200000X1.016000*%
G04 APERTURE END LIST*
D10*
G36*
X124396100Y-100153600D02*
X124396100Y-102653600D01*
X126896100Y-102653600D01*
X126896100Y-100153600D01*
X124396100Y-100153600D01*
G37*
G36*
X124396100Y-107353600D02*
X124396100Y-109853600D01*
X126896100Y-109853600D01*
X126896100Y-107353600D01*
X124396100Y-107353600D01*
G37*
G36*
X128446100Y-99953600D02*
X127896100Y-100553600D01*
X127896100Y-101653600D01*
X128446100Y-102253600D01*
X128996100Y-101653600D01*
X128996100Y-100553600D01*
X128446100Y-99953600D01*
G37*
G36*
X128446100Y-107753600D02*
X127896100Y-108353600D01*
X127896100Y-109453600D01*
X128446100Y-110053600D01*
X128996100Y-109453600D01*
X128996100Y-108353600D01*
X128446100Y-107753600D01*
G37*
G36*
X127696100Y-103553600D02*
X127696100Y-103853600D01*
X128946100Y-103853600D01*
X128946100Y-103553600D01*
X127696100Y-103553600D01*
G37*
G36*
X127696100Y-104203600D02*
X127696100Y-104503600D01*
X128946100Y-104503600D01*
X128946100Y-104203600D01*
X127696100Y-104203600D01*
G37*
G36*
X127696100Y-104853600D02*
X127696100Y-105153600D01*
X128946100Y-105153600D01*
X128946100Y-104853600D01*
X127696100Y-104853600D01*
G37*
G36*
X127696100Y-105503600D02*
X127696100Y-105803600D01*
X128946100Y-105803600D01*
X128946100Y-105503600D01*
X127696100Y-105503600D01*
G37*
G36*
X127696100Y-106153600D02*
X127696100Y-106453600D01*
X128946100Y-106453600D01*
X128946100Y-106153600D01*
X127696100Y-106153600D01*
G37*
G36*
X152882600Y-107289600D02*
X152882600Y-105765600D01*
X151358600Y-105765600D01*
X151358600Y-107289600D01*
X152882600Y-107289600D01*
G37*
G36*
X152882600Y-105003600D02*
X152882600Y-103479600D01*
X151358600Y-103479600D01*
X151358600Y-105003600D01*
X152882600Y-105003600D01*
G37*
G36*
X155168600Y-105003600D02*
X155168600Y-103479600D01*
X153644600Y-103479600D01*
X153644600Y-105003600D01*
X155168600Y-105003600D01*
G37*
G36*
X155168600Y-107289600D02*
X155168600Y-105765600D01*
X153644600Y-105765600D01*
X153644600Y-107289600D01*
X155168600Y-107289600D01*
G37*
D11*
X135142600Y-105646100D03*
X135142600Y-107546100D03*
D12*
X148010100Y-99503400D03*
X148010100Y-97803400D03*
D13*
X136879600Y-102575600D03*
X138779600Y-102575600D03*
D14*
X124696100Y-99074600D03*
X126796100Y-99074600D03*
D15*
X134239900Y-112216006D03*
X135939900Y-112216006D03*
D12*
X128816100Y-94628600D03*
X128816100Y-96328600D03*
D16*
X130449100Y-110693100D03*
X130449100Y-109093100D03*
X134549100Y-109093100D03*
X134549100Y-110693100D03*
D17*
X128321100Y-103703600D03*
X128321100Y-104353600D03*
X128321100Y-105003600D03*
X128321100Y-105653600D03*
X128321100Y-106303600D03*
D18*
X125546100Y-104253600D03*
X125546100Y-105753600D03*
D19*
X136883100Y-106811700D03*
X137833100Y-106811700D03*
X138783100Y-106811700D03*
X138783100Y-104211500D03*
X136883100Y-104211500D03*
D20*
X132896100Y-100829600D03*
X134896100Y-100829600D03*
D21*
X130496100Y-95629600D03*
X137296100Y-95629600D03*
D19*
X140502600Y-102620700D03*
X141452600Y-102620700D03*
X142402600Y-102620700D03*
X142402600Y-100020500D03*
X140502600Y-100020500D03*
D14*
X126564100Y-110845600D03*
X124464100Y-110845600D03*
D15*
X128080400Y-112179100D03*
X129780400Y-112179100D03*
D11*
X138849100Y-98211600D03*
X138849100Y-100111600D03*
D15*
X140666100Y-98463100D03*
X142366100Y-98463100D03*
D12*
X142303500Y-112216300D03*
X142303500Y-110516300D03*
D15*
X145477600Y-110083600D03*
X143777600Y-110083600D03*
D22*
X143707000Y-111937800D03*
X146107000Y-111937800D03*
D13*
X157215800Y-97764600D03*
X159115800Y-97764600D03*
D23*
X140460700Y-108574900D03*
X140460700Y-112074900D03*
X138710700Y-108574900D03*
X138710700Y-112074900D03*
D24*
X158863600Y-109200800D03*
X159363600Y-109200800D03*
X159863600Y-109200800D03*
X160363600Y-109200800D03*
X158863600Y-106800800D03*
X159363600Y-106800800D03*
X159863600Y-106800800D03*
X160363600Y-106800800D03*
D15*
X160069900Y-111785400D03*
X158369900Y-111785400D03*
D12*
X142227300Y-109219100D03*
X142227300Y-107519100D03*
D15*
X153613306Y-111170803D03*
X151913306Y-111170803D03*
X132841100Y-112179100D03*
X131141100Y-112179100D03*
D25*
X135301600Y-104114600D03*
X131601600Y-104114600D03*
D26*
X132499100Y-105591100D03*
X133449100Y-107591100D03*
X131549100Y-107591100D03*
D27*
X144920600Y-100525100D03*
X146620600Y-100525100D03*
X144920600Y-99625100D03*
X144920600Y-98825100D03*
X144920600Y-97925100D03*
X146620600Y-97925100D03*
X146620600Y-99625100D03*
X146620600Y-98825100D03*
D12*
X140246100Y-106361600D03*
X140246100Y-104661600D03*
X136956800Y-109081200D03*
X136956800Y-110781200D03*
D15*
X143650600Y-108369100D03*
X145350600Y-108369100D03*
D28*
X149513600Y-109834600D03*
X150013600Y-109834600D03*
X150513600Y-109834600D03*
X151013600Y-109834600D03*
X151513600Y-109834600D03*
X152013600Y-109834600D03*
X152513600Y-109834600D03*
X153013600Y-109834600D03*
X153513600Y-109834600D03*
X154013600Y-109834600D03*
X154513600Y-109834600D03*
X155013600Y-109834600D03*
X155513600Y-109834600D03*
X156013600Y-109834600D03*
X156513600Y-109834600D03*
X157013600Y-109834600D03*
D29*
X157713600Y-109134600D03*
X157713600Y-108634600D03*
X157713600Y-108134600D03*
X157713600Y-107634600D03*
X157713600Y-107134600D03*
X157713600Y-106634600D03*
X157713600Y-106134600D03*
X157713600Y-105634600D03*
X157713600Y-105134600D03*
X157713600Y-104634600D03*
X157713600Y-104134600D03*
X157713600Y-103634600D03*
X157713600Y-103134600D03*
X157713600Y-102634600D03*
X157713600Y-102134600D03*
X157713600Y-101634600D03*
D28*
X157013600Y-100934600D03*
X156513600Y-100934600D03*
X156013600Y-100934600D03*
X155513600Y-100934600D03*
X155013600Y-100934600D03*
X154513600Y-100934600D03*
X154013600Y-100934600D03*
X153513600Y-100934600D03*
X153013600Y-100934600D03*
X152513600Y-100934600D03*
X152013600Y-100934600D03*
X151513600Y-100934600D03*
X151013600Y-100934600D03*
X150513600Y-100934600D03*
X150013600Y-100934600D03*
X149513600Y-100934600D03*
D29*
X148813600Y-101634600D03*
X148813600Y-102134600D03*
X148813600Y-102634600D03*
X148813600Y-103134600D03*
X148813600Y-103634600D03*
X148813600Y-104134600D03*
X148813600Y-104634600D03*
X148813600Y-105134600D03*
X148813600Y-105634600D03*
X148813600Y-106134600D03*
X148813600Y-106634600D03*
X148813600Y-107134600D03*
X148813600Y-107634600D03*
X148813600Y-108134600D03*
X148813600Y-108634600D03*
X148813600Y-109134600D03*
D30*
X153263600Y-105384600D03*
D11*
X141897100Y-104180600D03*
X141897100Y-106080600D03*
D31*
X144183100Y-103495600D03*
X144183100Y-105749600D03*
D15*
X146176100Y-102019100D03*
X144476100Y-102019100D03*
M02*
