G04 #@! TF.FileFunction,Soldermask,Bot*
%FSLAX46Y46*%
G04 Gerber Fmt 4.6, Leading zero omitted, Abs format (unit mm)*
G04 Created by KiCad (PCBNEW 4.0.6) date Monday, September 17, 2018 'PMt' 12:21:56 PM*
%MOMM*%
%LPD*%
G01*
G04 APERTURE LIST*
%ADD10C,0.100000*%
%ADD11C,3.600000*%
%ADD12R,2.813000X2.813000*%
%ADD13C,1.543000*%
%ADD14C,2.076400*%
%ADD15C,1.900000*%
%ADD16R,1.568400X2.000200*%
%ADD17R,1.035000X0.603200*%
%ADD18C,1.670000*%
%ADD19C,1.200100*%
%ADD20C,1.206400*%
%ADD21C,2.000000*%
G04 APERTURE END LIST*
D10*
G36*
X134721600Y-112560100D02*
X132181600Y-112560100D01*
X132181600Y-114084100D01*
X134721600Y-114084100D01*
X134721600Y-112560100D01*
G37*
D11*
X125641100Y-96113600D03*
X125641100Y-113893600D03*
D12*
X125646100Y-108603600D03*
X125646100Y-101403600D03*
D13*
X128446100Y-101703600D03*
X128446100Y-108303600D03*
D14*
X167551100Y-115163600D03*
X165011100Y-115163600D03*
X162471100Y-115163600D03*
X159931100Y-115163600D03*
X157391100Y-115163600D03*
X154851100Y-115163600D03*
X152311100Y-115163600D03*
X149771100Y-115163600D03*
X147231100Y-115163600D03*
X144691100Y-115163600D03*
X142151100Y-115163600D03*
X139611100Y-115163600D03*
X137071100Y-115163600D03*
X134531100Y-115163600D03*
X131991100Y-115163600D03*
X129451100Y-115163600D03*
X139611100Y-94843600D03*
X142151100Y-94843600D03*
X144691100Y-94843600D03*
X147231100Y-94843600D03*
X149771100Y-94843600D03*
X152311100Y-94843600D03*
X154851100Y-94843600D03*
X157391100Y-94843600D03*
X159931100Y-94843600D03*
X162471100Y-94843600D03*
X165011100Y-94843600D03*
X167551100Y-94843600D03*
D15*
X141643100Y-111226600D03*
X143992600Y-111163100D03*
D16*
X134213600Y-113322100D03*
X132689600Y-113322100D03*
D17*
X133451600Y-113322100D03*
D18*
X128435100Y-106019600D03*
X128435100Y-103987600D03*
D19*
X132816600Y-108813600D03*
X136944100Y-108051600D03*
X141008100Y-107480100D03*
X137325100Y-100114100D03*
X131483100Y-101257100D03*
X130340100Y-107861100D03*
X140881100Y-95605600D03*
X131991100Y-94716600D03*
X135737600Y-94653100D03*
X146532600Y-96748600D03*
X143294100Y-102082600D03*
X132943600Y-104178100D03*
X140881100Y-101320600D03*
D20*
X145961100Y-104686100D03*
X143484600Y-104622600D03*
X153263600Y-107226100D03*
X151485600Y-103606600D03*
X151549100Y-105448100D03*
X151549100Y-107226100D03*
X153454100Y-105765600D03*
X155041600Y-103606600D03*
X149199600Y-98907600D03*
X153390600Y-101892100D03*
X156756100Y-103924100D03*
X149961600Y-108623100D03*
X160439100Y-97193100D03*
X158216600Y-113258600D03*
X158788100Y-101003100D03*
X160375600Y-105829100D03*
X159550100Y-99225100D03*
D21*
X164000000Y-108000000D03*
X164000000Y-106000000D03*
X164000000Y-104000000D03*
X164000000Y-102000000D03*
X170000000Y-108000000D03*
X170000000Y-106000000D03*
X170000000Y-104000000D03*
X170000000Y-102000000D03*
M02*
