G04 #@! TF.FileFunction,Profile,NP*
%FSLAX46Y46*%
G04 Gerber Fmt 4.6, Leading zero omitted, Abs format (unit mm)*
G04 Created by KiCad (PCBNEW 4.0.6) date Monday, September 17, 2018 'PMt' 12:21:56 PM*
%MOMM*%
%LPD*%
G01*
G04 APERTURE LIST*
%ADD10C,0.100000*%
%ADD11C,0.150000*%
G04 APERTURE END LIST*
D10*
D11*
X173900000Y-113900000D02*
X173900000Y-114900000D01*
X123100000Y-113900000D02*
X123100000Y-114900000D01*
X125641100Y-117433600D02*
X171361100Y-117433600D01*
X173901100Y-114893600D02*
G75*
G02X171361100Y-117433600I-2540000J0D01*
G01*
X173901100Y-113893600D02*
X173901100Y-96113600D01*
X171361100Y-93573600D02*
G75*
G02X173901100Y-96113600I0J-2540000D01*
G01*
X171361100Y-93573600D02*
X125641100Y-93573600D01*
X123101100Y-96113600D02*
G75*
G02X125641100Y-93573600I2540000J0D01*
G01*
X123101100Y-96113600D02*
X123101100Y-102463600D01*
X123101100Y-102463600D02*
X123609100Y-102971600D01*
X123609100Y-102971600D02*
X123609100Y-107035600D01*
X123609100Y-107035600D02*
X123101100Y-107543600D01*
X123101100Y-107543600D02*
X123101100Y-113893600D01*
X125641100Y-117433600D02*
G75*
G02X123101100Y-114893600I0J2540000D01*
G01*
D10*
X126296100Y-101303600D02*
G75*
G03X125946100Y-100953600I-350000J0D01*
G01*
X126296100Y-101303600D02*
X126296100Y-101503600D01*
X125946100Y-101853600D02*
G75*
G03X126296100Y-101503600I0J350000D01*
G01*
X125946100Y-101853600D02*
X125396100Y-101853600D01*
X124996100Y-101503600D02*
G75*
G03X125396100Y-101853600I375000J25000D01*
G01*
X124996100Y-101503600D02*
X124996100Y-101303600D01*
X125396100Y-100953600D02*
G75*
G03X124996100Y-101303600I-25000J-375000D01*
G01*
X125396100Y-100953600D02*
X125946100Y-100953600D01*
X124996100Y-108603600D02*
G75*
G03X125346100Y-109053600I400000J-50000D01*
G01*
X125346100Y-108153600D02*
G75*
G03X124996100Y-108603600I50000J-400000D01*
G01*
X125946100Y-109053600D02*
X125346100Y-109053600D01*
X125946100Y-109053600D02*
G75*
G03X126296100Y-108603600I-50000J400000D01*
G01*
X126296100Y-108603600D02*
G75*
G03X125946100Y-108153600I-400000J50000D01*
G01*
X125346100Y-108153600D02*
X125946100Y-108153600D01*
M02*
